<?xml version="1.0" standalone="no"?><!DOCTYPE svg PUBLIC "-//W3C//DTD SVG 1.1//EN" "http://www.w3.org/Graphics/SVG/1.1/DTD/svg11.dtd"><svg t="1629769395390" class="icon" viewBox="0 0 1024 1024" version="1.1" xmlns="http://www.w3.org/2000/svg" p-id="1447" xmlns:xlink="http://www.w3.org/1999/xlink" width="200" height="200"><defs><style type="text/css"></style></defs><path d="M506.321 161.493H348.222l-2.695-8.428c-3.334-10.508-8.417-17.422-15.059-20.555-9.833-4.646-21.181-0.212-21.275-0.166l-13.546 5.425-2.931-14.266c-0.354-1.583-9.432-41.003-62.502-41.003-53.567 0-68.484 66.568-69.098 69.406l-2.057 9.563L0 161.493v-24.207h139.91c9.646-31.737 37.351-78.991 90.304-78.991 48.673 0 73.045 27.185 82.335 48.402 7.636-1.042 17.73-0.923 27.896 3.758 10.898 5.022 19.266 14.029 24.962 26.831h140.915v24.207zM905.78 240.483h-61.297l-2.671-8.438c-3.335-10.497-8.392-17.411-15.012-20.544-9.856-4.656-21.156-0.212-21.274-0.165l-13.523 5.426-2.954-14.255c-0.354-1.583-9.479-41.014-62.549-41.014-53.568 0-68.483 66.568-69.099 69.405l-2.057 9.562-159.046 0.023v-24.207h139.898c9.644-31.735 37.35-78.99 90.303-78.99 48.673 0 73.067 27.185 82.383 48.414 7.658-1.065 17.73-0.946 27.893 3.747 10.899 5.036 19.244 14.041 24.919 26.83h44.086v24.206z" fill="#B6B9BE" p-id="1448"></path><path d="M1020.574 806.768c0 66.283-53.757 120.016-120.041 120.016H152.155c-66.284 0-120.005-53.732-120.005-120.016 0-66.311 53.721-120.055 120.005-120.055h748.378c66.284 0 120.041 53.744 120.041 120.055z" fill="#E9EAEB" p-id="1449"></path><path d="M153.337 293.483h520.399v459.232H153.337z" fill="#FFFFFF" p-id="1450"></path><path d="M685.84 764.83H141.234V281.379H685.84V764.83z m-520.399-24.219h496.192V305.586H165.441v435.025z" fill="#2D4978" p-id="1451"></path><path d="M950.128 661.938c0-106.908-40.376-104.898-40.376-104.898-22.174-88.755-88.742-117.003-88.742-117.003H673.736v312.679h276.392c40.328-38.321 0-90.778 0-90.778z m-201.691-78.672v-82.714h66.568l38.295 82.714H748.437z" fill="#9EC7EB" p-id="1452"></path><path d="M950.128 764.83H673.736c-6.689 0-12.104-5.438-12.104-12.115V440.036c0-6.691 5.414-12.104 12.104-12.104H821.01c1.631 0 3.239 0.331 4.729 0.957 2.861 1.217 68.768 30.093 93.802 117.937 15.931 5.627 41.887 27.564 42.667 111.154 15.697 22.693 32.48 69.084-3.734 103.516a12.182 12.182 0 0 1-8.346 3.334zM685.84 740.611h259.159c26.356-29.951-3.17-69.584-4.491-71.32-1.586-2.104-2.482-4.705-2.482-7.354 0-74.393-20.449-92.216-28.32-92.808-6.218 0.615-10.306-3.545-11.702-9.16-18.438-73.813-68.647-102.358-79.688-107.83H685.84v288.472zM853.3 595.369H748.437c-6.689 0-12.103-5.412-12.103-12.104v-82.714c0-6.689 5.413-12.103 12.103-12.103h66.568c4.703 0 9.007 2.742 10.993 7.022l38.295 82.713a12.059 12.059 0 0 1-0.803 11.596 12.065 12.065 0 0 1-10.19 5.59z m-92.759-24.206h73.823l-27.089-58.508h-46.734v58.508z" fill="#2D4978" p-id="1453"></path><path d="M856.754 752.715c0 36.463-29.551 66.014-66.003 66.014s-66-29.551-66-66.014c0-36.453 29.548-66.002 66-66.002s66.003 29.549 66.003 66.002z" fill="#E9EAEB" p-id="1454"></path><path d="M790.751 830.83c-43.07 0-78.104-35.031-78.104-78.115 0-43.072 35.034-78.105 78.104-78.105s78.104 35.033 78.104 78.105c0 43.084-35.034 78.115-78.104 78.115z m0-132.014c-29.716 0-53.898 24.182-53.898 53.898 0 29.725 24.183 53.908 53.898 53.908s53.897-24.184 53.897-53.908c0-29.716-24.181-53.898-53.897-53.898z" fill="#2D4978" p-id="1455"></path><path d="M360.561 752.715c0 36.463-29.573 66.014-66.001 66.014-36.453 0-66.001-29.551-66.001-66.014 0-36.453 29.549-66.002 66.001-66.002 36.428 0 66.001 29.549 66.001 66.002z" fill="#E9EAEB" p-id="1456"></path><path d="M294.56 830.83c-43.072 0-78.105-35.031-78.105-78.115 0-43.072 35.033-78.105 78.105-78.105 43.07 0 78.105 35.033 78.105 78.105 0 43.084-35.035 78.115-78.105 78.115z m0-132.014c-29.714 0-53.898 24.182-53.898 53.898 0 29.725 24.184 53.908 53.898 53.908s53.898-24.184 53.898-53.908c0-29.716-24.184-53.898-53.898-53.898z" fill="#2D4978" p-id="1457"></path><path d="M58.201 492.456h423.773v318.708H58.201z" fill="#FFFFFF" p-id="1458"></path><path d="M494.077 823.266H46.097V480.352h447.979v342.914zM70.292 799.059H469.87v-294.5H70.292v294.5z" fill="#2D4978" p-id="1459"></path><path d="M203.358 492.456h133.469v58.378H203.358z" fill="#9EC7EB" p-id="1460"></path><path d="M336.827 562.938H203.358c-6.689 0-12.104-5.414-12.104-12.104v-58.378c0-6.69 5.414-12.104 12.104-12.104h133.469c6.689 0 12.104 5.414 12.104 12.104v58.378c0 6.689-5.414 12.104-12.104 12.104zM215.461 538.73h109.262v-34.171H215.461v34.171z" fill="#2D4978" p-id="1461"></path><path d="M109.179 726.486h23.829v26.229h-23.829zM177.922 726.486h23.875v26.229h-23.875zM238.439 726.486h23.829v26.229h-23.829z" fill="#2D4978" p-id="1462"></path></svg>