<?xml version="1.0" standalone="no"?><!DOCTYPE svg PUBLIC "-//W3C//DTD SVG 1.1//EN" "http://www.w3.org/Graphics/SVG/1.1/DTD/svg11.dtd"><svg t="1629769389896" class="icon" viewBox="0 0 1024 1024" version="1.1" xmlns="http://www.w3.org/2000/svg" p-id="1308" xmlns:xlink="http://www.w3.org/1999/xlink" width="200" height="200"><defs><style type="text/css"></style></defs><path d="M990.323556 445.107537c0 238.538779-193.350821 431.889599-431.837599 431.889599-238.538779 0-431.890599-193.351821-431.890599-431.889599 0-238.487779 193.351821-431.864599 431.890599-431.864599 238.487779 0 431.837599 193.376821 431.837599 431.864599z" fill="#E9EAEB" p-id="1309"></path><path d="M25.220452 502.430484h749.184305v506.77153H25.220452z" fill="#FFFFFF" p-id="1310"></path><path d="M787.625744 1022.424001H12.000464V489.210496h775.62528v533.213505zM38.441439 995.982026h722.74433V515.650472H38.441439v480.331554z" fill="#2D4978" p-id="1311"></path><path d="M296.2432 502.430484h207.139808v99.127908h-207.139808z" fill="#FFFFFF" p-id="1312"></path><path d="M516.603996 614.78038H283.022212V489.210496h233.580784v125.569884z m-207.140808-26.441976h180.698832V515.650472H309.463188v72.687932zM112.239371 929.880087h28.661973v28.661974h-28.661973zM194.868294 929.880087h28.661974v28.661974h-28.661974zM267.581227 929.880087h28.661973v28.661974h-28.661973z" fill="#2D4978" p-id="1313"></path><path d="M424.318081 111.287847V13.242938l-261.106757 210.419805 231.359785 231.360785V332.731641s287.547733-46.271957 294.158727 122.290887C696.269829 646.82435 477.200032 735.960267 477.200032 735.960267s323.9047-19.830982 360.260666-233.529783c41.778961-245.484772-135.511874-391.142637-413.142617-391.142637z" fill="#9EC7EB" p-id="1314"></path><path d="M477.200032 749.181255c-6.145994 0-11.516989-4.234996-12.884988-10.276991-1.445999-6.300994 1.910998-12.728988 7.900993-15.183985 2.090998-0.851999 210.393805-88.050918 203.291811-268.180752-3.717997-95.384912-109.663898-115.395893-197.869816-115.395893-30.133972 0-55.902948 2.478998-69.846935 4.156997v110.722897a13.225988 13.225988 0 0 1-8.159993 12.212989c-4.905995 2.014998-10.61199 0.929999-14.407986-2.865998l-231.359786-231.359785a13.153988 13.153988 0 0 1-3.846996-10.043991 13.292988 13.292988 0 0 1 4.905995-9.605991L416.029089 2.939947c3.949996-3.175997 9.398991-3.873996 13.994987-1.626998a13.219988 13.219988 0 0 1 7.513993 11.929989v84.926921c154.075857 2.581998 277.941742 50.505953 349.777676 135.613874 59.491945 70.466935 81.337925 164.120848 63.185941 270.866749C812.801721 726.147276 491.660019 748.328256 478.000032 749.154255c-0.258 0.027-0.541999 0.027-0.8 0.027z m0.439-435.479596c141.087869 0 220.747795 49.989954 224.310792 140.804869 5.112995 130.010879-86.50092 213.981801-153.120858 257.568761 94.867912-19.442982 251.889766-72.454933 275.593744-211.864803 16.834984-98.818908-2.995997-185.036828-57.298947-249.383769-68.787936-81.465924-190.510823-126.318883-342.804682-126.318883-7.307993 0-13.220988-5.912995-13.220987-13.219987V40.871912L182.964305 224.720742l198.386816 198.387815v-90.375916c0-6.480994 4.699996-12.032989 11.12899-13.039988 1.497999-0.258 37.724965-5.990994 85.158921-5.990994z" fill="#2D4978" p-id="1315"></path></svg>