<?xml version="1.0" standalone="no"?><!DOCTYPE svg PUBLIC "-//W3C//DTD SVG 1.1//EN" "http://www.w3.org/Graphics/SVG/1.1/DTD/svg11.dtd"><svg t="1629769420239" class="icon" viewBox="0 0 1024 1024" version="1.1" xmlns="http://www.w3.org/2000/svg" p-id="2045" xmlns:xlink="http://www.w3.org/1999/xlink" width="200" height="200"><defs><style type="text/css"></style></defs><path d="M909.161 420.015c0 231.961-188.04 420.013-419.976 420.013C257.2 840.027 69.16 651.976 69.16 420.015 69.16 188.052 257.2 0 489.185 0c231.936 0 419.976 188.052 419.976 420.015z" fill="#E9EAEB" p-id="2046"></path><path d="M282.562 420.015h728.581v492.862H282.562z" fill="#FFFFFF" p-id="2047"></path><path d="M1024 925.734H269.705V407.155H1024v518.579z m-728.579-25.713h702.863V432.872H295.421v467.149z" fill="#2D4978" p-id="2048"></path><path d="M546.116 420.015h201.475v96.418H546.116z" fill="#FFFFFF" p-id="2049"></path><path d="M760.448 529.29H533.257V407.155h227.191V529.29z m-201.475-25.716h175.761v-70.702H558.973v70.702zM367.191 835.732h27.85v27.862h-27.85zM447.55 835.732h27.85v27.862h-27.85zM600.584 401.782c-7.107 0-12.857-5.751-12.857-12.857V217.484h-209.99c-7.106 0-12.857-5.751-12.857-12.857 0-7.107 5.751-12.857 12.857-12.857h222.847c7.105 0 12.857 5.75 12.857 12.857v184.298c0 7.106-5.752 12.857-12.857 12.857z" fill="#2D4978" p-id="2050"></path><path d="M377.737 217.484a12.78 12.78 0 0 1-9.692-4.42c-4.671-5.36-4.093-13.485 1.255-18.144l79.807-69.36c5.373-4.659 13.485-4.093 18.129 1.268 4.671 5.362 4.095 13.487-1.255 18.144l-79.806 69.36a12.867 12.867 0 0 1-8.438 3.152z" fill="#2D4978" p-id="2051"></path><path d="M457.544 289.557a12.824 12.824 0 0 1-8.614-3.315l-79.806-72.072c-5.274-4.759-5.675-12.894-0.93-18.156 4.72-5.262 12.857-5.725 18.156-0.93l79.807 72.072c5.272 4.76 5.676 12.896 0.928 18.156a12.795 12.795 0 0 1-9.541 4.245z" fill="#2D4978" p-id="2052"></path><path d="M282.889 184.687c0-74.558-60.446-135.027-135.028-135.027-74.533 0-135.002 60.469-135.002 135.027 0 18.96 3.967 36.94 10.999 53.313h-0.051l124.054 236.531L271.966 238h-0.101c7.081-16.373 11.024-34.353 11.024-53.313z" fill="#9EC7EB" p-id="2053"></path><path d="M147.861 487.389c-4.77 0-9.166-2.648-11.375-6.879L12.431 243.977C4.019 224.402 0 204.765 0 184.687 0 103.148 66.323 36.802 147.861 36.802c81.54 0 147.885 66.346 147.885 147.885 0 19.689-3.842 38.837-11.451 56.929a11.855 11.855 0 0 1-0.953 2.36L159.236 480.51a12.836 12.836 0 0 1-11.375 6.879z m0-424.872c-67.35 0-122.145 54.808-122.145 122.17 0 16.625 3.339 32.859 9.943 48.241l112.201 213.93 112.001-213.453c0.049-0.177 0.125-0.339 0.2-0.515 6.605-15.281 9.97-31.504 9.97-48.204 0.001-67.362-54.794-122.169-122.17-122.169z" fill="#2D4978" p-id="2054"></path><path d="M227.166 178.812c0 43.77-35.509 79.279-79.305 79.279-43.745 0-79.254-35.509-79.254-79.279 0-43.771 35.509-79.28 79.254-79.28 43.796 0 79.305 35.509 79.305 79.28z" fill="#FFFFFF" p-id="2055"></path><path d="M147.861 270.948c-50.801 0-92.111-41.335-92.111-92.136 0-50.803 41.311-92.138 92.111-92.138 50.828 0 92.162 41.335 92.162 92.138 0 50.801-41.335 92.136-92.162 92.136z m0-158.558c-36.612 0-66.397 29.796-66.397 66.422 0 36.625 29.785 66.421 66.397 66.421 36.639 0 66.448-29.796 66.448-66.421 0-36.626-29.809-66.422-66.448-66.422z" fill="#2D4978" p-id="2056"></path></svg>