<?xml version="1.0" standalone="no"?><!DOCTYPE svg PUBLIC "-//W3C//DTD SVG 1.1//EN" "http://www.w3.org/Graphics/SVG/1.1/DTD/svg11.dtd"><svg t="1629773674859" class="icon" viewBox="0 0 1024 1024" version="1.1" xmlns="http://www.w3.org/2000/svg" p-id="1348" xmlns:xlink="http://www.w3.org/1999/xlink" width="200" height="200"><defs><style type="text/css"></style></defs><path d="M512 494.4c-118.5 0-215-96.4-215-215s96.5-215 215-215 215 96.5 215 215-96.5 215-215 215z m0-359.1c-79.5 0-144.2 64.7-144.2 144.2S432.5 423.6 512 423.6s144.2-64.7 144.2-144.2S591.5 135.3 512 135.3z" fill="#2BA8FC" p-id="1349"></path><path d="M677.6 959.6H346.4c-116 0-210.4-94.4-210.4-210.4V745c0-116 94.4-210.4 210.4-210.4h331.2C793.6 534.6 888 629 888 745v4.2c0 116-94.4 210.4-210.4 210.4zM346.4 605.4c-76.9 0-139.6 62.6-139.6 139.6v4.2c0 77 62.6 139.6 139.6 139.6h331.2c76.9 0 139.6-62.6 139.6-139.6V745c0-77-62.6-139.6-139.6-139.6H346.4z" fill="#686868" p-id="1350"></path></svg>