<?xml version="1.0" standalone="no"?><!DOCTYPE svg PUBLIC "-//W3C//DTD SVG 1.1//EN" "http://www.w3.org/Graphics/SVG/1.1/DTD/svg11.dtd"><svg t="1629769403044" class="icon" viewBox="0 0 1024 1024" version="1.1" xmlns="http://www.w3.org/2000/svg" p-id="1598" xmlns:xlink="http://www.w3.org/1999/xlink" width="200" height="200"><defs><style type="text/css"></style></defs><path d="M836.742 980.384l-299.019-1.475 0.595-126.786 299.048 1.475z" fill="#9EC7EB" p-id="1599"></path><path d="M836.742 994.899h-0.07l-299.021-1.475c-8.009-0.028-14.487-6.577-14.444-14.572l0.595-126.786a14.554 14.554 0 0 1 4.296-10.264 14.522 14.522 0 0 1 10.221-4.195h0.07l299.049 1.474c8.022 0.028 14.487 6.578 14.444 14.602l-0.624 126.786c-0.014 3.827-1.573 7.513-4.295 10.234a14.523 14.523 0 0 1-10.221 4.196z m-284.432-30.42l269.988 1.305 0.481-97.755-270.017-1.305-0.452 97.755z" fill="#2D4978" p-id="1600"></path><path d="M577.584 838.174l213.428-1.19 2.467-39.068 201.18-196.359 13.438-159.788-36.573-214.619s-89.022 3.629-65.859 178.045l-29.23 53.697-123.229 115.843-72.055 3.516-81.736 81.708s-46.213 63.563-21.831 178.215z" fill="#FFFFFF" p-id="1601"></path><path d="M565.847 852.747l-2.466-11.567c-25.432-119.586 22.255-186.948 24.297-189.755l87.165-87.406 72.31-3.516 117.644-110.598 25.87-47.517c-9.114-73.77 0.213-127.75 27.756-160.524 23.305-27.728 51.33-29.173 52.507-29.23l12.758-0.51 39.025 229.021-14.048 167.017-201.054 196.246-2.963 47.006-238.801 1.333z m43.845-182.554c0.269 0-37.296 55.455-20.158 153.408l187.841-1.049 1.971-31.13 201.308-196.474 12.828-152.558L959.9 245.351c-5.855 2.778-13.07 7.598-19.903 15.962-15.21 18.683-31.03 58.46-19.944 141.982l0.623 4.678-34.305 61.494-127.112 119.5-71.813 3.515-77.753 77.739v-0.028z" fill="#2D4978" p-id="1602"></path><path d="M816.642 647.881l125.596-125.596s26.253-38.387-11.737-65.377c-37.396-26.594-180.313 124.518-180.313 124.518" fill="#FFFFFF" p-id="1603"></path><path d="M826.904 658.145l-20.526-20.526 125.596-125.596c1.205-2.354 14.842-25.715-9.88-43.292-12.603-8.675-85.748 42.725-161.361 122.675l-21.093-19.959c45.561-48.169 156.201-157.15 199.267-126.361 36.402 25.856 29.103 65.236 15.31 85.394L826.904 658.145z" fill="#2D4978" p-id="1604"></path><path d="M185.97 980.384l299.019-1.475-0.595-126.786-299.048 1.475z" fill="#9EC7EB" p-id="1605"></path><path d="M185.97 994.899a14.523 14.523 0 0 1-10.221-4.196c-2.722-2.722-4.281-6.407-4.295-10.234l-0.624-126.786c-0.042-8.023 6.421-14.573 14.445-14.602l299.048-1.474h0.071c3.827 0 7.499 1.502 10.221 4.195a14.547 14.547 0 0 1 4.295 10.264l0.596 126.786c0.042 7.995-6.436 14.544-14.445 14.572l-299.02 1.475h-0.071z m13.963-126.871l0.482 97.755 269.988-1.305-0.454-97.755-270.016 1.305z" fill="#2D4978" p-id="1606"></path><path d="M445.127 838.174l-213.427-1.19-2.467-39.068-201.179-196.36-13.439-159.788 36.573-214.619s89.023 3.629 65.86 178.045l29.23 53.697 123.214 115.843 72.068 3.516 81.737 81.708c0 0.001 46.213 63.564 21.83 178.216z" fill="#FFFFFF" p-id="1607"></path><path d="M456.865 852.747l-238.802-1.333-2.962-47.006L14.048 608.161 0 441.145l39.025-229.021 12.758 0.51c1.177 0.057 29.202 1.502 52.507 29.23 27.543 32.774 36.871 86.755 27.755 160.524l25.871 47.517 117.629 110.598 72.324 3.516 85.691 85.677c3.515 4.536 51.202 71.898 25.771 191.484l-2.466 11.567z m-211.528-30.194l187.841 1.049c17.521-99.768-21.207-154.542-21.618-155.109l-76.293-76.01-71.828-3.515-129.905-123.13-31.499-57.864 0.624-4.678c11.085-83.522-4.735-123.299-19.945-141.982-6.818-8.335-14.034-13.184-19.902-15.934L29.23 442.392 42.059 594.95l201.308 196.474 1.97 31.129z" fill="#2D4978" p-id="1608"></path><path d="M206.07 647.881L80.475 522.285s-26.253-38.387 11.738-65.377c37.395-26.594 180.313 124.518 180.313 124.518" fill="#FFFFFF" p-id="1609"></path><path d="M195.808 658.145L70.212 532.549c-15.508-22.228-22.809-61.607 13.594-87.464 42.98-30.789 153.677 78.192 199.266 126.361l-21.093 19.959c-75.627-79.95-148.787-131.294-161.361-122.675-25.629 18.23-10.022 42.64-8.165 45.362l123.88 123.526-20.525 20.527z" fill="#2D4978" p-id="1610"></path><path d="M281.74 147.937L512.802 14.516l231.062 133.421v266.784L512.802 548.142 281.74 414.721z" fill="#9EC7EB" p-id="1611"></path><path d="M512.802 562.657a14.42 14.42 0 0 1-7.258-1.956l-231.062-133.42a14.474 14.474 0 0 1-7.258-12.56V147.937c0-5.188 2.764-9.979 7.258-12.56L505.544 1.956a14.444 14.444 0 0 1 14.516 0l231.063 133.421a14.475 14.475 0 0 1 7.258 12.56v266.785c0 5.188-2.765 9.979-7.258 12.56L520.06 560.701a14.42 14.42 0 0 1-7.258 1.956zM296.256 406.329l216.546 125.057 216.546-125.057V156.328L512.802 31.271 296.256 156.328v250.001z" fill="#2D4978" p-id="1612"></path><path d="M365.83 196.644l143.343 94.353 150.601-94.353" fill="#9EC7EB" p-id="1613"></path><path d="M509.173 305.512c-2.778 0-5.557-0.794-7.981-2.381l-143.343-94.353c-6.691-4.423-8.548-13.41-4.139-20.129 4.408-6.663 13.424-8.505 20.101-4.14l135.562 89.25 142.691-89.419c6.79-4.281 15.721-2.183 20.017 4.593 4.252 6.804 2.197 15.763-4.593 20.016l-150.602 94.353a14.57 14.57 0 0 1-7.713 2.21z" fill="#2D4978" p-id="1614"></path><path d="M512.802 472.444v-174.19" fill="#9EC7EB" p-id="1615"></path><path d="M512.802 486.96c-8.023 0-14.516-6.493-14.516-14.516v-174.19c0-8.023 6.492-14.516 14.516-14.516s14.516 6.492 14.516 14.516v174.189c-0.001 8.024-6.493 14.517-14.516 14.517z" fill="#2D4978" p-id="1616"></path></svg>