<?xml version="1.0" standalone="no"?><!DOCTYPE svg PUBLIC "-//W3C//DTD SVG 1.1//EN" "http://www.w3.org/Graphics/SVG/1.1/DTD/svg11.dtd"><svg t="1629769407427" class="icon" viewBox="0 0 1024 1024" version="1.1" xmlns="http://www.w3.org/2000/svg" p-id="1752" xmlns:xlink="http://www.w3.org/1999/xlink" width="200" height="200"><defs><style type="text/css"></style></defs><path d="M947.224 484.242c0 259.373-210.251 469.608-469.55 469.608-259.357 0-469.609-210.235-469.609-469.608 0-259.328 210.252-469.58 469.609-469.58 259.299 0 469.55 210.252 469.55 469.58z" fill="#E9EAEB" p-id="1753"></path><path d="M875.729 937.625c0 19.875-16.124 35.969-35.954 35.969H165.18c-19.89 0-36.013-16.094-36.013-35.969V106.651c0-19.831 16.124-35.969 36.013-35.969h674.595c19.83 0 35.954 16.138 35.954 35.969v830.974z" fill="#FFFFFF" p-id="1754"></path><path d="M839.774 988.658H165.18c-28.157 0-51.077-22.891-51.077-51.033V106.651c0-28.143 22.92-51.033 51.077-51.033h674.595c28.127 0 51.019 22.891 51.019 51.033v830.974c-0.001 28.143-22.893 51.033-51.02 51.033zM165.18 85.747c-11.563 0-20.949 9.371-20.949 20.905v830.974c0 11.533 9.386 20.904 20.949 20.904h674.595c11.504 0 20.891-9.371 20.891-20.904V106.651c0-11.534-9.387-20.905-20.891-20.905H165.18z" fill="#2D4978" p-id="1755"></path><path d="M439.513 59.384H565.44v22.597H439.513zM244.796 246.893h464.402v30.378H244.796zM244.796 361.595h342.976v30.378H244.796zM244.796 476.284h232.202v30.364H244.796zM238.088 623.586h33.717v30.335h-33.717zM327.179 623.586h33.718v30.335h-33.718zM238.088 755.707h33.717v30.349h-33.717zM327.179 755.707h33.718v30.349h-33.718z" fill="#344B62" p-id="1756"></path><path d="M995.124 394.298c6.973-7.017 6.973-18.389 0-25.42l-69.084-69.04c-7.032-7.017-18.418-7.017-25.421 0l-72.496 72.512 94.445 94.474 72.556-72.526z" fill="#9EC7EB" p-id="1757"></path><path d="M922.568 481.888a15.018 15.018 0 0 1-10.651-4.413L817.472 383c-5.884-5.885-5.884-15.417 0-21.302l72.497-72.511c12.356-12.431 34.13-12.504 46.722-0.015l69.084 69.054c12.799 12.916 12.799 33.835 0.029 46.693l-72.584 72.556a15.02 15.02 0 0 1-10.652 4.413zM849.425 372.35l73.144 73.172 61.905-61.875c1.117-1.118 1.117-3.001-0.06-4.164l-69.024-68.995c0-0.044-3.118 0-3.914 0h-0.206l-61.845 61.862z" fill="#2D4978" p-id="1758"></path><path d="M828.123 372.35L524.896 675.53l-29.068 123.561 123.514-29.07 303.226-303.197z" fill="#FFFFFF" p-id="1759"></path><path d="M480.646 814.271l33.982-144.464 313.495-313.435 110.421 110.451L625.05 780.289l-144.404 33.982z m54.52-133.017l-24.157 102.654 102.625-24.155 292.958-292.929-78.47-78.499-292.956 292.929z" fill="#344B62" p-id="1760"></path></svg>